<svg width="110" height="110" viewBox="0 0 110 110" fill="none" xmlns="http://www.w3.org/2000/svg">
<path d="M47.128 41.4154C47.128 41.4154 50.142 61.7118 68.774 64.4546C87.406 67.1973 85.214 82.5566 85.214 82.5566C85.214 82.5566 109.6 48.8209 78.9119 27.1532C78.9119 27.1532 73.4319 10.9709 57.2659 10.9709C41.0999 10.9709 33.154 27.1532 33.154 27.1532C33.154 27.1532 16.4399 28.5245 16.4399 46.6267C16.4399 64.7288 31.2359 66.923 31.2359 66.923C31.2359 66.923 28.222 46.3523 47.128 41.4154Z" stroke="#440C4D" stroke-width="3" stroke-miterlimit="10" stroke-linecap="round" stroke-linejoin="round"/>
<path d="M80.5559 72.4084C80.5559 72.4084 69.322 98.4646 55.348 98.4646C44.5054 98.4646 36.0656 83.1749 33.0166 76.7969" stroke="#440C4D" stroke-width="3" stroke-miterlimit="10" stroke-linecap="round" stroke-linejoin="round"/>
</svg>
