<svg width="110" height="110" viewBox="0 0 110 110" fill="none" xmlns="http://www.w3.org/2000/svg">
<path d="M43.2921 56.5008C43.2921 56.5008 20.2761 38.9472 36.1681 13.7139L63.0201 86.1224" stroke="#372A39" stroke-width="3" stroke-miterlimit="10" stroke-linecap="round" stroke-linejoin="round"/>
<path d="M75.6241 97.0933C82.7365 97.0933 88.5021 91.3219 88.5021 84.2025C88.5021 77.083 82.7365 71.3115 75.6241 71.3115C68.5118 71.3115 62.7461 77.083 62.7461 84.2025C62.7461 91.3219 68.5118 97.0933 75.6241 97.0933Z" stroke="#372A39" stroke-width="3" stroke-miterlimit="10" stroke-linecap="round" stroke-linejoin="round"/>
<path d="M67.4041 56.5008C67.4041 56.5008 90.42 38.9472 74.528 13.7139L47.676 86.1224" stroke="#372A39" stroke-width="3" stroke-miterlimit="10" stroke-linecap="round" stroke-linejoin="round"/>
<path d="M34.798 97.0933C41.9104 97.0933 47.676 91.3219 47.676 84.2025C47.676 77.083 41.9104 71.3115 34.798 71.3115C27.6857 71.3115 21.92 77.083 21.92 84.2025C21.92 91.3219 27.6857 97.0933 34.798 97.0933Z" stroke="#372A39" stroke-width="3" stroke-miterlimit="10" stroke-linecap="round" stroke-linejoin="round"/>
</svg>
