<svg width="110" height="110" viewBox="0 0 110 110" fill="none" xmlns="http://www.w3.org/2000/svg">
<path d="M92.064 61.7118C92.612 77.0712 82.748 90.5107 82.748 90.5107C82.748 90.5107 84.94 75.1514 66.308 72.4086C47.676 69.6659 44.662 49.3695 44.662 49.3695C25.756 54.3064 28.4959 75.1514 28.4959 75.1514C28.4959 75.1514 13.7 72.9571 13.7 54.855C13.7 36.7528 30.414 35.3815 30.414 35.3815C30.414 35.3815 38.3599 19.1992 54.5259 19.1992C62.7459 19.1992 68.226 23.3133 71.514 27.4275" stroke="#440C4D" stroke-width="3" stroke-miterlimit="10" stroke-linecap="round" stroke-linejoin="round"/>
<path d="M93.4339 46.9009C93.4339 48.8209 92.8859 50.4666 92.0639 51.8379C91.7899 52.6608 91.2419 53.2093 90.6939 53.7578C88.7759 56.2263 85.7619 57.5976 82.4739 57.5976C76.4459 57.5976 71.5139 52.6607 71.5139 46.6266C71.5139 43.8839 73.7059 38.947 76.1719 34.0101C79.1859 27.976 82.4739 22.4905 82.4739 22.4905C82.4739 22.4905 86.5839 29.073 89.5979 35.6556C91.7899 40.3183 93.4339 44.4325 93.4339 46.9009Z" stroke="#440C4D" stroke-width="3" stroke-miterlimit="10" stroke-linecap="round" stroke-linejoin="round"/>
</svg>
