<svg width="94" height="65" viewBox="0 0 94 65" fill="none" xmlns="http://www.w3.org/2000/svg">
<path d="M20.632 29.6332C26.3824 29.6332 31.0439 24.9669 31.0439 19.2108C31.0439 13.4546 26.3824 8.78833 20.632 8.78833C14.8816 8.78833 10.22 13.4546 10.22 19.2108C10.22 24.9669 14.8816 29.6332 20.632 29.6332Z" stroke="#440C4D" stroke-width="3" stroke-miterlimit="10" stroke-linecap="round" stroke-linejoin="round"/>
<path d="M62.28 33.7473L19.262 36.4901C9.67201 36.4901 2 28.8104 2 19.2107C2 10.9825 8.028 3.85136 15.7 2.20571C17.618 1.93143 19.536 1.93143 21.454 2.20571L62.28 7.41691V33.7473Z" stroke="#440C4D" stroke-width="3" stroke-miterlimit="10" stroke-linecap="round" stroke-linejoin="round"/>
<path d="M32.14 35.6672V54.0436C32.14 58.9806 28.03 63.0947 23.098 63.0947C18.166 63.0947 14.056 58.9806 14.056 54.0436V35.9415" stroke="#440C4D" stroke-width="3" stroke-miterlimit="10" stroke-linecap="round" stroke-linejoin="round"/>
<path d="M62.28 34.0216L72.692 37.3129V4.3999L62.28 7.69121V34.0216Z" stroke="#440C4D" stroke-width="3" stroke-miterlimit="10" stroke-linecap="round" stroke-linejoin="round"/>
<path d="M79.542 21.405H91.872" stroke="#440C4D" stroke-width="3" stroke-miterlimit="10" stroke-linecap="round" stroke-linejoin="round"/>
<path d="M79.542 13.7253L89.954 7.41699" stroke="#440C4D" stroke-width="3" stroke-miterlimit="10" stroke-linecap="round" stroke-linejoin="round"/>
<path d="M89.954 35.1188L79.542 29.0847" stroke="#440C4D" stroke-width="3" stroke-miterlimit="10" stroke-linecap="round" stroke-linejoin="round"/>
</svg>
