<svg width="110" height="110" viewBox="0 0 110 110" fill="none" xmlns="http://www.w3.org/2000/svg">
<path d="M76.7064 73.4029C76.7064 85.236 65.6911 97.876 54.4072 97.876C43.1233 97.876 32.3767 85.236 32.3767 73.4029C32.3767 61.5698 51.1832 49.4678 54.4072 49.4678C57.6312 49.4678 76.7064 61.5698 76.7064 73.4029Z" stroke="#440C4D" stroke-width="3" stroke-linecap="round" stroke-linejoin="round"/>
<path d="M32.3766 73.403C32.3766 73.403 14.9134 52.6951 25.1226 40.862C35.3319 29.0289 59.5117 23.1123 59.5117 23.1123" stroke="#440C4D" stroke-width="3" stroke-linecap="round" stroke-linejoin="round"/>
<path d="M23.5105 43.2824C23.5105 43.2824 26.7345 9.66557 51.183 11.0102C63.5416 11.817 67.8402 17.7336 69.4522 23.3812C70.0244 26.1785 69.8812 29.0751 69.0357 31.8021C68.1903 34.5291 66.67 36.998 64.6162 38.9794L54.4069 49.4678" stroke="#440C4D" stroke-width="3" stroke-linecap="round" stroke-linejoin="round"/>
<path d="M69.7209 24.7258C69.7209 24.7258 90.4081 31.4492 90.4081 47.3163C90.1395 58.3426 76.7062 73.4029 76.7062 73.4029" stroke="#440C4D" stroke-width="3" stroke-linecap="round" stroke-linejoin="round"/>
</svg>
